<svg width="220" height="30" viewBox="0 0 220 30" fill="none" xmlns="http://www.w3.org/2000/svg">
<path d="M53.1645 12.9121C55.7419 13.1926 57.6793 13.7887 58.9768 14.7005C60.2918 15.6122 60.9493 17.0587 60.9493 19.0399C60.9493 20.1621 60.6424 21.179 60.0288 22.0907C59.4326 23.0025 58.5297 23.7301 57.3199 24.2736C56.1276 24.8172 54.6724 25.0889 52.9541 25.0889C51.2008 25.0889 49.7192 24.7733 48.5094 24.1421C47.3172 23.5109 46.423 22.6693 45.8268 21.6173C45.2482 20.5653 44.9589 19.4081 44.9589 18.1458H49.3247C49.3247 19.0925 49.6052 19.8903 50.1663 20.539C50.7449 21.1878 51.6742 21.5121 52.9541 21.5121C54.1814 21.5121 55.0844 21.293 55.663 20.8546C56.2416 20.4163 56.5309 19.8991 56.5309 19.3029C56.5309 18.7244 56.2679 18.2685 55.7419 17.9354C55.2159 17.6022 54.2866 17.348 52.9541 17.1727C51.078 16.9272 49.6052 16.5502 48.5357 16.0418C47.4662 15.5333 46.7035 14.8933 46.2476 14.1219C45.8093 13.3504 45.5901 12.3948 45.5901 11.2552C45.5901 10.2032 45.8794 9.26515 46.458 8.44109C47.0366 7.59949 47.8782 6.94199 48.9828 6.4686C50.1049 5.97766 51.4462 5.7322 53.0067 5.7322C54.6022 5.7322 55.9348 6.01273 57.0043 6.5738C58.0738 7.13486 58.8716 7.88002 59.3976 8.80929C59.9236 9.72102 60.2129 10.7292 60.2655 11.8338H56.0049C56.0049 11.1324 55.7594 10.5363 55.2685 10.0454C54.7776 9.55445 54.0061 9.30898 52.9541 9.30898C51.9196 9.30898 51.1657 9.49308 50.6923 9.86128C50.2189 10.2119 49.9822 10.624 49.9822 11.0974C49.9822 11.5357 50.1926 11.9127 50.6134 12.2283C51.0342 12.5439 51.8846 12.7718 53.1645 12.9121Z" fill="white"/>
<path d="M68.3566 14.1482V19.9341C68.3566 20.4075 68.3741 20.7319 68.4092 20.9072C68.4618 21.0826 68.567 21.1965 68.7248 21.2491C68.8826 21.2842 69.1807 21.3017 69.619 21.3017H72.1438V24.6681H68.2514C67.2871 24.6681 66.5068 24.5454 65.9107 24.2999C65.3146 24.0369 64.8675 23.5986 64.5694 22.9849C64.2889 22.3713 64.1486 21.5121 64.1486 20.4075V14.1482H61.6238V10.7818H64.1486V6.99459H68.3566V10.7818H72.1438V14.1482H68.3566Z" fill="white"/>
<path d="M73.6597 20.9598C73.6597 19.487 74.1594 18.4 75.1588 17.6987C76.1582 16.9973 77.482 16.5941 79.1301 16.4889C79.6912 16.4538 80.0857 16.4363 80.3136 16.4363C81.4357 16.3837 82.2247 16.296 82.6806 16.1733C83.1365 16.0505 83.3556 15.7612 83.3381 15.3054C83.3206 14.8144 83.1365 14.3936 82.7858 14.043C82.4351 13.6923 81.8302 13.517 80.9711 13.517C80.0944 13.517 79.4457 13.6835 79.0249 14.0167C78.6216 14.3498 78.3586 14.8144 78.2359 15.4106H74.0805C74.3084 13.6923 75.0887 12.4211 76.4212 11.5971C77.7713 10.773 79.323 10.361 81.0763 10.361C83.0225 10.361 84.583 10.8344 85.7577 11.7812C86.9499 12.7104 87.5461 14.4462 87.5461 16.9886V24.6681H83.3381V23.958C83.3381 23.5723 83.4345 23.1866 83.6274 22.8008C83.6449 22.7482 83.6975 22.6343 83.7852 22.4589C83.8728 22.2836 83.9167 22.1346 83.9167 22.0118C83.9167 21.9066 83.8728 21.8365 83.7852 21.8014L83.6274 21.7488C83.4871 21.7488 83.3907 21.8102 83.3381 21.9329C83.2855 22.0557 83.2504 22.1258 83.2329 22.1433C82.777 23.0551 82.1458 23.7739 81.3393 24.2999C80.5503 24.8259 79.6035 25.0889 78.4989 25.0889C77.5872 25.0889 76.7543 24.9048 76.0004 24.5366C75.264 24.1684 74.6854 23.6775 74.2646 23.0638C73.8614 22.4326 73.6597 21.7313 73.6597 20.9598ZM83.3381 17.9354C83.0225 18.251 82.6455 18.4614 82.2072 18.5666C81.7864 18.6542 80.9536 18.7769 79.7087 18.9347C79.1652 18.9873 78.7181 19.1539 78.3674 19.4344C78.0343 19.715 77.8677 20.127 77.8677 20.6705C77.8677 21.1439 78.0343 21.5121 78.3674 21.7751C78.7181 22.0381 79.1476 22.1696 79.6561 22.1696C80.112 22.1696 80.6204 22.0294 81.1815 21.7488C81.7601 21.4683 82.2598 21.0124 82.6806 20.3812C83.1189 19.75 83.3381 18.9347 83.3381 17.9354Z" fill="white"/>
<path d="M95.1568 14.1482V19.9341C95.1568 20.4075 95.1743 20.7319 95.2094 20.9072C95.262 21.0826 95.3672 21.1965 95.525 21.2491C95.6828 21.2842 95.9809 21.3017 96.4192 21.3017H98.944V24.6681H95.0516C94.0873 24.6681 93.307 24.5454 92.7109 24.2999C92.1148 24.0369 91.6677 23.5986 91.3696 22.9849C91.0891 22.3713 90.9488 21.5121 90.9488 20.4075V14.1482H88.424V10.7818H90.9488V6.99459H95.1568V10.7818H98.944V14.1482H95.1568Z" fill="white"/>
<path d="M114.125 17.3042C114.125 17.8828 114.099 18.3737 114.046 18.777H103.973C104.113 19.6711 104.473 20.39 105.052 20.9335C105.63 21.4595 106.349 21.7225 107.208 21.7225C107.839 21.7225 108.365 21.5735 108.786 21.2754C109.207 20.9774 109.505 20.5653 109.68 20.0393H113.862C113.564 21.4771 112.845 22.6781 111.705 23.6424C110.566 24.6068 109.075 25.0889 107.234 25.0889C105.674 25.0889 104.333 24.7646 103.211 24.1158C102.088 23.4671 101.238 22.5904 100.659 21.4858C100.098 20.3637 99.8178 19.1101 99.8178 17.725C99.8178 16.2872 100.107 15.0161 100.686 13.9115C101.264 12.7893 102.106 11.9214 103.211 11.3078C104.315 10.6766 105.63 10.361 107.156 10.361C108.383 10.361 109.523 10.6152 110.574 11.1237C111.644 11.6321 112.503 12.4124 113.152 13.4644C113.801 14.4988 114.125 15.7788 114.125 17.3042ZM107.234 13.6222C105.499 13.6222 104.447 14.4988 104.078 16.2522H109.996C109.926 15.4106 109.645 14.7618 109.154 14.306C108.663 13.8501 108.023 13.6222 107.234 13.6222Z" fill="white"/>
<path d="M116.076 6.153H129.962V9.94018H120.494V13.6222H128.279V17.199H120.494V24.6681H116.076V6.153Z" fill="white"/>
<path d="M138.014 10.361C139.505 10.361 140.802 10.6941 141.907 11.3604C143.029 12.0091 143.888 12.8945 144.484 14.0167C145.08 15.1388 145.378 16.3749 145.378 17.725C145.378 19.075 145.08 20.3111 144.484 21.4332C143.888 22.5554 143.029 23.4496 141.907 24.1158C140.802 24.7646 139.505 25.0889 138.014 25.0889C136.524 25.0889 135.218 24.7646 134.096 24.1158C132.991 23.4496 132.141 22.5554 131.545 21.4332C130.948 20.3111 130.65 19.075 130.65 17.725C130.65 16.3749 130.948 15.1388 131.545 14.0167C132.141 12.8945 132.991 12.0091 134.096 11.3604C135.218 10.6941 136.524 10.361 138.014 10.361ZM138.014 21.5121C139.014 21.5121 139.785 21.1527 140.329 20.4338C140.89 19.715 141.17 18.812 141.17 17.725C141.17 16.6379 140.89 15.7349 140.329 15.0161C139.785 14.2972 139.014 13.9378 138.014 13.9378C137.015 13.9378 136.235 14.2972 135.674 15.0161C135.13 15.7349 134.858 16.6379 134.858 17.725C134.858 18.812 135.13 19.715 135.674 20.4338C136.235 21.1527 137.015 21.5121 138.014 21.5121Z" fill="white"/>
<path d="M150.827 13.7537C150.967 13.7537 151.099 13.6309 151.221 13.3855C151.519 12.7017 151.835 12.1669 152.168 11.7812C152.519 11.3779 153.001 11.0798 153.615 10.887C154.246 10.6766 155.096 10.5714 156.166 10.5714V14.6216C155.973 14.604 155.692 14.5953 155.324 14.5953C153.781 14.5953 152.694 14.9635 152.063 15.6999C151.432 16.4363 151.116 17.6285 151.116 19.2766V24.6681H146.908V10.7818H151.116V11.413C151.116 11.8338 150.993 12.2896 150.748 12.7806C150.608 13.0962 150.538 13.3153 150.538 13.4381C150.538 13.6309 150.617 13.7361 150.774 13.7537H150.827Z" fill="white"/>
<path d="M162.504 19.4081C162.592 19.864 162.636 20.4514 162.636 21.1702C162.636 21.5384 162.776 21.7225 163.057 21.7225C163.337 21.7225 163.478 21.5384 163.478 21.1702C163.478 20.4514 163.521 19.864 163.609 19.4081L165.056 10.7818H170.105L171.552 19.4081C171.639 19.864 171.683 20.4514 171.683 21.1702C171.683 21.5384 171.823 21.7225 172.104 21.7225C172.384 21.7225 172.525 21.5384 172.525 21.1702C172.525 20.4514 172.569 19.864 172.656 19.4081L174.313 10.7818H178.732L174.944 24.6681H169.264L168.133 17.0675C168.098 16.7519 168.054 15.9629 168.001 14.7005C168.001 14.3323 167.861 14.1482 167.58 14.1482C167.3 14.1482 167.16 14.3323 167.16 14.7005C167.107 15.9629 167.063 16.7519 167.028 17.0675L165.897 24.6681H160.216L156.429 10.7818H160.848L162.504 19.4081Z" fill="white"/>
<path d="M178.8 20.9598C178.8 19.487 179.299 18.4 180.299 17.6987C181.298 16.9973 182.622 16.5941 184.27 16.4889C184.831 16.4538 185.226 16.4363 185.454 16.4363C186.576 16.3837 187.365 16.296 187.821 16.1733C188.276 16.0505 188.496 15.7612 188.478 15.3054C188.461 14.8144 188.276 14.3936 187.926 14.043C187.575 13.6923 186.97 13.517 186.111 13.517C185.234 13.517 184.586 13.6835 184.165 14.0167C183.762 14.3498 183.499 14.8144 183.376 15.4106H179.221C179.448 13.6923 180.229 12.4211 181.561 11.5971C182.911 10.773 184.463 10.361 186.216 10.361C188.163 10.361 189.723 10.8344 190.898 11.7812C192.09 12.7104 192.686 14.4462 192.686 16.9886V24.6681H188.478V23.958C188.478 23.5723 188.575 23.1866 188.767 22.8008C188.785 22.7482 188.838 22.6343 188.925 22.4589C189.013 22.2836 189.057 22.1346 189.057 22.0118C189.057 21.9066 189.013 21.8365 188.925 21.8014L188.767 21.7488C188.627 21.7488 188.531 21.8102 188.478 21.9329C188.425 22.0557 188.39 22.1258 188.373 22.1433C187.917 23.0551 187.286 23.7739 186.479 24.2999C185.69 24.8259 184.744 25.0889 183.639 25.0889C182.727 25.0889 181.894 24.9048 181.14 24.5366C180.404 24.1684 179.825 23.6775 179.405 23.0638C179.001 22.4326 178.8 21.7313 178.8 20.9598ZM188.478 17.9354C188.162 18.251 187.786 18.4614 187.347 18.5666C186.926 18.6542 186.094 18.7769 184.849 18.9347C184.305 18.9873 183.858 19.1539 183.507 19.4344C183.174 19.715 183.008 20.127 183.008 20.6705C183.008 21.1439 183.174 21.5121 183.507 21.7751C183.858 22.0381 184.288 22.1696 184.796 22.1696C185.252 22.1696 185.76 22.0294 186.322 21.7488C186.9 21.4683 187.4 21.0124 187.821 20.3812C188.259 19.75 188.478 18.9347 188.478 17.9354Z" fill="white"/>
<path d="M198.976 13.7537C199.117 13.7537 199.248 13.6309 199.371 13.3855C199.669 12.7017 199.984 12.1669 200.318 11.7812C200.668 11.3779 201.15 11.0798 201.764 10.887C202.395 10.6766 203.246 10.5714 204.315 10.5714V14.6216C204.122 14.604 203.842 14.5953 203.474 14.5953C201.931 14.5953 200.844 14.9635 200.212 15.6999C199.581 16.4363 199.266 17.6285 199.266 19.2766V24.6681H195.058V10.7818H199.266V11.413C199.266 11.8338 199.143 12.2896 198.897 12.7806C198.757 13.0962 198.687 13.3153 198.687 13.4381C198.687 13.6309 198.766 13.7361 198.924 13.7537H198.976Z" fill="white"/>
<path d="M219.634 24.6681H215.426V24.1684C215.426 23.8704 215.532 23.4934 215.742 23.0375C215.917 22.6869 216.005 22.4414 216.005 22.3011C216.005 22.1609 215.935 22.0644 215.795 22.0118L215.716 21.9855C215.593 21.9855 215.497 22.0469 215.426 22.1696C215.374 22.2924 215.339 22.3625 215.321 22.38C214.883 23.2392 214.296 23.9054 213.559 24.3788C212.84 24.8522 211.972 25.0889 210.955 25.0889C209.711 25.0889 208.632 24.7646 207.721 24.1158C206.809 23.4671 206.108 22.5904 205.617 21.4858C205.143 20.3637 204.907 19.1101 204.907 17.725C204.907 16.3398 205.143 15.095 205.617 13.9904C206.108 12.8682 206.809 11.9828 207.721 11.3341C208.632 10.6853 209.711 10.361 210.955 10.361C212.849 10.361 214.304 11.2552 215.321 13.0436C215.409 13.2014 215.497 13.3241 215.584 13.4118C215.672 13.4994 215.786 13.5082 215.926 13.4381C216.031 13.3855 216.084 13.3153 216.084 13.2277C216.084 13.1049 216.031 12.9471 215.926 12.7543C215.821 12.5614 215.751 12.4299 215.716 12.3598C215.523 11.974 215.426 11.5883 215.426 11.2026V5.7322H219.634V24.6681ZM212.165 21.5121C213.13 21.5121 213.91 21.1439 214.506 20.4075C215.12 19.6711 215.426 18.7769 215.426 17.725C215.426 16.673 215.12 15.7788 214.506 15.0424C213.91 14.306 213.13 13.9378 212.165 13.9378C211.166 13.9378 210.403 14.2972 209.877 15.0161C209.369 15.7349 209.114 16.6379 209.114 17.725C209.114 18.812 209.369 19.715 209.877 20.4338C210.403 21.1527 211.166 21.5121 212.165 21.5121Z" fill="white"/>
<path d="M29.67 1C30.1918 1 30.5325 1.54755 30.3019 2.01565L28.6713 5.32637C28.5527 5.56709 28.3077 5.71954 28.0393 5.71954H17.742C17.4602 5.71954 17.2055 5.88747 17.0945 6.14647L16.4039 7.75804C16.2929 8.01704 16.0382 8.18497 15.7564 8.18497H11.7862C11.2483 8.18497 10.9089 7.60647 11.1713 7.13693L14.3991 1.36078C14.5236 1.13802 14.7589 1 15.0141 1H29.67Z" fill="white"/>
<path d="M11.0134 29.6694C10.4916 29.6694 10.1509 29.1219 10.3815 28.6538L12.0121 25.3431C12.1307 25.1023 12.3757 24.9499 12.644 24.9499H22.9414C23.2232 24.9499 23.4778 24.782 23.5888 24.523L24.2795 22.9114C24.3905 22.6524 24.6452 22.4845 24.927 22.4845H28.8972C29.4351 22.4845 29.7745 23.063 29.5121 23.5325L26.2842 29.3086C26.1598 29.5314 25.9245 29.6694 25.6693 29.6694H11.0134Z" fill="white"/>
<path d="M9.72248 9.37235C9.98332 8.90284 9.64382 8.32585 9.10672 8.32585H5.29123C5.0371 8.32585 4.80267 8.46273 4.67777 8.68405L1.09095 15.0396C0.953542 15.2831 0.973135 15.5848 1.14088 15.8085L2.55538 17.6945C2.68841 17.8719 2.89719 17.9762 3.1189 17.9762H31.6188C32.1462 17.9762 32.4866 18.5347 32.2448 19.0035L30.9796 21.4572C30.7379 21.9261 31.0782 22.4845 31.6057 22.4845H35.7392C35.9961 22.4845 36.2326 22.3446 36.3564 22.1195L39.8518 15.7643C39.9633 15.5614 39.9681 15.3168 39.8646 15.1098L38.8862 13.153C38.7669 12.9144 38.523 12.7636 38.2562 12.7636H9.03559C8.49849 12.7636 8.15899 12.1866 8.41983 11.7171L9.72248 9.37235Z" fill="white"/>
<path d="M53.1645 12.9121C55.7419 13.1926 57.6793 13.7887 58.9768 14.7005C60.2918 15.6122 60.9493 17.0587 60.9493 19.0399C60.9493 20.1621 60.6424 21.179 60.0288 22.0907C59.4326 23.0025 58.5297 23.7301 57.3199 24.2736C56.1276 24.8172 54.6724 25.0889 52.9541 25.0889C51.2008 25.0889 49.7192 24.7733 48.5094 24.1421C47.3172 23.5109 46.423 22.6693 45.8268 21.6173C45.2482 20.5653 44.9589 19.4081 44.9589 18.1458H49.3247C49.3247 19.0925 49.6052 19.8903 50.1663 20.539C50.7449 21.1878 51.6742 21.5121 52.9541 21.5121C54.1814 21.5121 55.0844 21.293 55.663 20.8546C56.2416 20.4163 56.5309 19.8991 56.5309 19.3029C56.5309 18.7244 56.2679 18.2685 55.7419 17.9354C55.2159 17.6022 54.2866 17.348 52.9541 17.1727C51.078 16.9272 49.6052 16.5502 48.5357 16.0418C47.4662 15.5333 46.7035 14.8933 46.2476 14.1219C45.8093 13.3504 45.5901 12.3948 45.5901 11.2552C45.5901 10.2032 45.8794 9.26515 46.458 8.44109C47.0366 7.59949 47.8782 6.94199 48.9828 6.4686C50.1049 5.97766 51.4462 5.7322 53.0067 5.7322C54.6022 5.7322 55.9348 6.01273 57.0043 6.5738C58.0738 7.13486 58.8716 7.88002 59.3976 8.80929C59.9236 9.72102 60.2129 10.7292 60.2655 11.8338H56.0049C56.0049 11.1324 55.7594 10.5363 55.2685 10.0454C54.7776 9.55445 54.0061 9.30898 52.9541 9.30898C51.9196 9.30898 51.1657 9.49308 50.6923 9.86128C50.2189 10.2119 49.9822 10.624 49.9822 11.0974C49.9822 11.5357 50.1926 11.9127 50.6134 12.2283C51.0342 12.5439 51.8846 12.7718 53.1645 12.9121Z" stroke="white" stroke-width="0.161156"/>
<path d="M68.3566 14.1482V19.9341C68.3566 20.4075 68.3741 20.7319 68.4092 20.9072C68.4618 21.0826 68.567 21.1965 68.7248 21.2491C68.8826 21.2842 69.1807 21.3017 69.619 21.3017H72.1438V24.6681H68.2514C67.2871 24.6681 66.5068 24.5454 65.9107 24.2999C65.3146 24.0369 64.8675 23.5986 64.5694 22.9849C64.2889 22.3713 64.1486 21.5121 64.1486 20.4075V14.1482H61.6238V10.7818H64.1486V6.99459H68.3566V10.7818H72.1438V14.1482H68.3566Z" stroke="white" stroke-width="0.161156"/>
<path d="M73.6597 20.9598C73.6597 19.487 74.1594 18.4 75.1588 17.6987C76.1582 16.9973 77.482 16.5941 79.1301 16.4889C79.6912 16.4538 80.0857 16.4363 80.3136 16.4363C81.4357 16.3837 82.2247 16.296 82.6806 16.1733C83.1365 16.0505 83.3556 15.7612 83.3381 15.3054C83.3206 14.8144 83.1365 14.3936 82.7858 14.043C82.4351 13.6923 81.8302 13.517 80.9711 13.517C80.0944 13.517 79.4457 13.6835 79.0249 14.0167C78.6216 14.3498 78.3586 14.8144 78.2359 15.4106H74.0805C74.3084 13.6923 75.0887 12.4211 76.4212 11.5971C77.7713 10.773 79.323 10.361 81.0763 10.361C83.0225 10.361 84.583 10.8344 85.7577 11.7812C86.9499 12.7104 87.5461 14.4462 87.5461 16.9886V24.6681H83.3381V23.958C83.3381 23.5723 83.4345 23.1866 83.6274 22.8008C83.6449 22.7482 83.6975 22.6343 83.7852 22.4589C83.8728 22.2836 83.9167 22.1346 83.9167 22.0118C83.9167 21.9066 83.8728 21.8365 83.7852 21.8014L83.6274 21.7488C83.4871 21.7488 83.3907 21.8102 83.3381 21.9329C83.2855 22.0557 83.2504 22.1258 83.2329 22.1433C82.777 23.0551 82.1458 23.7739 81.3393 24.2999C80.5503 24.8259 79.6035 25.0889 78.4989 25.0889C77.5872 25.0889 76.7543 24.9048 76.0004 24.5366C75.264 24.1684 74.6854 23.6775 74.2646 23.0638C73.8614 22.4326 73.6597 21.7313 73.6597 20.9598ZM83.3381 17.9354C83.0225 18.251 82.6455 18.4614 82.2072 18.5666C81.7864 18.6542 80.9536 18.7769 79.7087 18.9347C79.1652 18.9873 78.7181 19.1539 78.3674 19.4344C78.0343 19.715 77.8677 20.127 77.8677 20.6705C77.8677 21.1439 78.0343 21.5121 78.3674 21.7751C78.7181 22.0381 79.1476 22.1696 79.6561 22.1696C80.112 22.1696 80.6204 22.0294 81.1815 21.7488C81.7601 21.4683 82.2598 21.0124 82.6806 20.3812C83.1189 19.75 83.3381 18.9347 83.3381 17.9354Z" stroke="white" stroke-width="0.161156"/>
<path d="M95.1568 14.1482V19.9341C95.1568 20.4075 95.1743 20.7319 95.2094 20.9072C95.262 21.0826 95.3672 21.1965 95.525 21.2491C95.6828 21.2842 95.9809 21.3017 96.4192 21.3017H98.944V24.6681H95.0516C94.0873 24.6681 93.307 24.5454 92.7109 24.2999C92.1148 24.0369 91.6677 23.5986 91.3696 22.9849C91.0891 22.3713 90.9488 21.5121 90.9488 20.4075V14.1482H88.424V10.7818H90.9488V6.99459H95.1568V10.7818H98.944V14.1482H95.1568Z" stroke="white" stroke-width="0.161156"/>
<path d="M114.125 17.3042C114.125 17.8828 114.099 18.3737 114.046 18.777H103.973C104.113 19.6711 104.473 20.39 105.052 20.9335C105.63 21.4595 106.349 21.7225 107.208 21.7225C107.839 21.7225 108.365 21.5735 108.786 21.2754C109.207 20.9774 109.505 20.5653 109.68 20.0393H113.862C113.564 21.4771 112.845 22.6781 111.705 23.6424C110.566 24.6068 109.075 25.0889 107.234 25.0889C105.674 25.0889 104.333 24.7646 103.211 24.1158C102.088 23.4671 101.238 22.5904 100.659 21.4858C100.098 20.3637 99.8178 19.1101 99.8178 17.725C99.8178 16.2872 100.107 15.0161 100.686 13.9115C101.264 12.7893 102.106 11.9214 103.211 11.3078C104.315 10.6766 105.63 10.361 107.156 10.361C108.383 10.361 109.523 10.6152 110.574 11.1237C111.644 11.6321 112.503 12.4124 113.152 13.4644C113.801 14.4988 114.125 15.7788 114.125 17.3042ZM107.234 13.6222C105.499 13.6222 104.447 14.4988 104.078 16.2522H109.996C109.926 15.4106 109.645 14.7618 109.154 14.306C108.663 13.8501 108.023 13.6222 107.234 13.6222Z" stroke="white" stroke-width="0.161156"/>
<path d="M116.076 6.153H129.962V9.94018H120.494V13.6222H128.279V17.199H120.494V24.6681H116.076V6.153Z" stroke="white" stroke-width="0.161156"/>
<path d="M138.014 10.361C139.505 10.361 140.802 10.6941 141.907 11.3604C143.029 12.0091 143.888 12.8945 144.484 14.0167C145.08 15.1388 145.378 16.3749 145.378 17.725C145.378 19.075 145.08 20.3111 144.484 21.4332C143.888 22.5554 143.029 23.4496 141.907 24.1158C140.802 24.7646 139.505 25.0889 138.014 25.0889C136.524 25.0889 135.218 24.7646 134.096 24.1158C132.991 23.4496 132.141 22.5554 131.545 21.4332C130.948 20.3111 130.65 19.075 130.65 17.725C130.65 16.3749 130.948 15.1388 131.545 14.0167C132.141 12.8945 132.991 12.0091 134.096 11.3604C135.218 10.6941 136.524 10.361 138.014 10.361ZM138.014 21.5121C139.014 21.5121 139.785 21.1527 140.329 20.4338C140.89 19.715 141.17 18.812 141.17 17.725C141.17 16.6379 140.89 15.7349 140.329 15.0161C139.785 14.2972 139.014 13.9378 138.014 13.9378C137.015 13.9378 136.235 14.2972 135.674 15.0161C135.13 15.7349 134.858 16.6379 134.858 17.725C134.858 18.812 135.13 19.715 135.674 20.4338C136.235 21.1527 137.015 21.5121 138.014 21.5121Z" stroke="white" stroke-width="0.161156"/>
<path d="M150.827 13.7537C150.967 13.7537 151.099 13.6309 151.221 13.3855C151.519 12.7017 151.835 12.1669 152.168 11.7812C152.519 11.3779 153.001 11.0798 153.615 10.887C154.246 10.6766 155.096 10.5714 156.166 10.5714V14.6216C155.973 14.604 155.692 14.5953 155.324 14.5953C153.781 14.5953 152.694 14.9635 152.063 15.6999C151.432 16.4363 151.116 17.6285 151.116 19.2766V24.6681H146.908V10.7818H151.116V11.413C151.116 11.8338 150.993 12.2896 150.748 12.7806C150.608 13.0962 150.538 13.3153 150.538 13.4381C150.538 13.6309 150.617 13.7361 150.774 13.7537H150.827Z" stroke="white" stroke-width="0.161156"/>
<path d="M162.504 19.4081C162.592 19.864 162.636 20.4514 162.636 21.1702C162.636 21.5384 162.776 21.7225 163.057 21.7225C163.337 21.7225 163.478 21.5384 163.478 21.1702C163.478 20.4514 163.521 19.864 163.609 19.4081L165.056 10.7818H170.105L171.552 19.4081C171.639 19.864 171.683 20.4514 171.683 21.1702C171.683 21.5384 171.823 21.7225 172.104 21.7225C172.384 21.7225 172.525 21.5384 172.525 21.1702C172.525 20.4514 172.569 19.864 172.656 19.4081L174.313 10.7818H178.732L174.944 24.6681H169.264L168.133 17.0675C168.098 16.7519 168.054 15.9629 168.001 14.7005C168.001 14.3323 167.861 14.1482 167.58 14.1482C167.3 14.1482 167.16 14.3323 167.16 14.7005C167.107 15.9629 167.063 16.7519 167.028 17.0675L165.897 24.6681H160.216L156.429 10.7818H160.848L162.504 19.4081Z" stroke="white" stroke-width="0.161156"/>
<path d="M178.8 20.9598C178.8 19.487 179.299 18.4 180.299 17.6987C181.298 16.9973 182.622 16.5941 184.27 16.4889C184.831 16.4538 185.226 16.4363 185.454 16.4363C186.576 16.3837 187.365 16.296 187.821 16.1733C188.276 16.0505 188.496 15.7612 188.478 15.3054C188.461 14.8144 188.276 14.3936 187.926 14.043C187.575 13.6923 186.97 13.517 186.111 13.517C185.234 13.517 184.586 13.6835 184.165 14.0167C183.762 14.3498 183.499 14.8144 183.376 15.4106H179.221C179.448 13.6923 180.229 12.4211 181.561 11.5971C182.911 10.773 184.463 10.361 186.216 10.361C188.163 10.361 189.723 10.8344 190.898 11.7812C192.09 12.7104 192.686 14.4462 192.686 16.9886V24.6681H188.478V23.958C188.478 23.5723 188.575 23.1866 188.767 22.8008C188.785 22.7482 188.838 22.6343 188.925 22.4589C189.013 22.2836 189.057 22.1346 189.057 22.0118C189.057 21.9066 189.013 21.8365 188.925 21.8014L188.767 21.7488C188.627 21.7488 188.531 21.8102 188.478 21.9329C188.425 22.0557 188.39 22.1258 188.373 22.1433C187.917 23.0551 187.286 23.7739 186.479 24.2999C185.69 24.8259 184.744 25.0889 183.639 25.0889C182.727 25.0889 181.894 24.9048 181.14 24.5366C180.404 24.1684 179.825 23.6775 179.405 23.0638C179.001 22.4326 178.8 21.7313 178.8 20.9598ZM188.478 17.9354C188.162 18.251 187.786 18.4614 187.347 18.5666C186.926 18.6542 186.094 18.7769 184.849 18.9347C184.305 18.9873 183.858 19.1539 183.507 19.4344C183.174 19.715 183.008 20.127 183.008 20.6705C183.008 21.1439 183.174 21.5121 183.507 21.7751C183.858 22.0381 184.288 22.1696 184.796 22.1696C185.252 22.1696 185.76 22.0294 186.322 21.7488C186.9 21.4683 187.4 21.0124 187.821 20.3812C188.259 19.75 188.478 18.9347 188.478 17.9354Z" stroke="white" stroke-width="0.161156"/>
<path d="M198.976 13.7537C199.117 13.7537 199.248 13.6309 199.371 13.3855C199.669 12.7017 199.984 12.1669 200.318 11.7812C200.668 11.3779 201.15 11.0798 201.764 10.887C202.395 10.6766 203.246 10.5714 204.315 10.5714V14.6216C204.122 14.604 203.842 14.5953 203.474 14.5953C201.931 14.5953 200.844 14.9635 200.212 15.6999C199.581 16.4363 199.266 17.6285 199.266 19.2766V24.6681H195.058V10.7818H199.266V11.413C199.266 11.8338 199.143 12.2896 198.897 12.7806C198.757 13.0962 198.687 13.3153 198.687 13.4381C198.687 13.6309 198.766 13.7361 198.924 13.7537H198.976Z" stroke="white" stroke-width="0.161156"/>
<path d="M219.634 24.6681H215.426V24.1684C215.426 23.8704 215.532 23.4934 215.742 23.0375C215.917 22.6869 216.005 22.4414 216.005 22.3011C216.005 22.1609 215.935 22.0644 215.795 22.0118L215.716 21.9855C215.593 21.9855 215.497 22.0469 215.426 22.1696C215.374 22.2924 215.339 22.3625 215.321 22.38C214.883 23.2392 214.296 23.9054 213.559 24.3788C212.84 24.8522 211.972 25.0889 210.955 25.0889C209.711 25.0889 208.632 24.7646 207.721 24.1158C206.809 23.4671 206.108 22.5904 205.617 21.4858C205.143 20.3637 204.907 19.1101 204.907 17.725C204.907 16.3398 205.143 15.095 205.617 13.9904C206.108 12.8682 206.809 11.9828 207.721 11.3341C208.632 10.6853 209.711 10.361 210.955 10.361C212.849 10.361 214.304 11.2552 215.321 13.0436C215.409 13.2014 215.497 13.3241 215.584 13.4118C215.672 13.4994 215.786 13.5082 215.926 13.4381C216.031 13.3855 216.084 13.3153 216.084 13.2277C216.084 13.1049 216.031 12.9471 215.926 12.7543C215.821 12.5614 215.751 12.4299 215.716 12.3598C215.523 11.974 215.426 11.5883 215.426 11.2026V5.7322H219.634V24.6681ZM212.165 21.5121C213.13 21.5121 213.91 21.1439 214.506 20.4075C215.12 19.6711 215.426 18.7769 215.426 17.725C215.426 16.673 215.12 15.7788 214.506 15.0424C213.91 14.306 213.13 13.9378 212.165 13.9378C211.166 13.9378 210.403 14.2972 209.877 15.0161C209.369 15.7349 209.114 16.6379 209.114 17.725C209.114 18.812 209.369 19.715 209.877 20.4338C210.403 21.1527 211.166 21.5121 212.165 21.5121Z" stroke="white" stroke-width="0.161156"/>
<path d="M29.67 1C30.1918 1 30.5325 1.54755 30.3019 2.01565L28.6713 5.32637C28.5527 5.56709 28.3077 5.71954 28.0393 5.71954H17.742C17.4602 5.71954 17.2055 5.88747 17.0945 6.14647L16.4039 7.75804C16.2929 8.01704 16.0382 8.18497 15.7564 8.18497H11.7862C11.2483 8.18497 10.9089 7.60647 11.1713 7.13693L14.3991 1.36078C14.5236 1.13802 14.7589 1 15.0141 1H29.67Z" stroke="white" stroke-width="0.161156"/>
<path d="M11.0134 29.6694C10.4916 29.6694 10.1509 29.1219 10.3815 28.6538L12.0121 25.3431C12.1307 25.1023 12.3757 24.9499 12.644 24.9499H22.9414C23.2232 24.9499 23.4778 24.782 23.5888 24.523L24.2795 22.9114C24.3905 22.6524 24.6452 22.4845 24.927 22.4845H28.8972C29.4351 22.4845 29.7745 23.063 29.5121 23.5325L26.2842 29.3086C26.1598 29.5314 25.9245 29.6694 25.6693 29.6694H11.0134Z" stroke="white" stroke-width="0.161156"/>
<path d="M9.72248 9.37235C9.98332 8.90284 9.64382 8.32585 9.10672 8.32585H5.29123C5.0371 8.32585 4.80267 8.46273 4.67777 8.68405L1.09095 15.0396C0.953542 15.2831 0.973135 15.5848 1.14088 15.8085L2.55538 17.6945C2.68841 17.8719 2.89719 17.9762 3.1189 17.9762H31.6188C32.1462 17.9762 32.4866 18.5347 32.2448 19.0035L30.9796 21.4572C30.7379 21.9261 31.0782 22.4845 31.6057 22.4845H35.7392C35.9961 22.4845 36.2326 22.3446 36.3564 22.1195L39.8518 15.7643C39.9633 15.5614 39.9681 15.3168 39.8646 15.1098L38.8862 13.153C38.7669 12.9144 38.523 12.7636 38.2562 12.7636H9.03559C8.49849 12.7636 8.15899 12.1866 8.41983 11.7171L9.72248 9.37235Z" stroke="white" stroke-width="0.161156"/>
</svg>
